# xmcd
#
# Track frame offsets:
#	150
#	13593
#	28011
#	45704
#	57731
#
# Disc length: 960 seconds
#
# Revision: 1
# Processed by: cddbd v1.5.2PL0 Copyright (c) Steve Scherf et al.
# Submitted via: audiograbber 1.83.01
#
DISCID=3e03be05
DTITLE=Sue the Night - Verzamel
DYEAR=2010
DGENRE=Pop
TTITLE0=Sue the Night - Sooner or later
TTITLE1=Sue the Night - Coldwind
TTITLE2=Sue the Night - Don't go
TTITLE3=Sue the Night - Everything must change
TTITLE4=Sue the Night - Say you want to love
EXTD=
EXTT0=
EXTT1=
EXTT2=
EXTT3=
EXTT4=
PLAYORDER=
